<?xml version="1.0" standalone="no"?><!DOCTYPE svg PUBLIC "-//W3C//DTD SVG 1.1//EN" "http://www.w3.org/Graphics/SVG/1.1/DTD/svg11.dtd"><svg t="1536032141630" class="icon" style="" viewBox="0 0 1024 1024" version="1.1" xmlns="http://www.w3.org/2000/svg" p-id="834" xmlns:xlink="http://www.w3.org/1999/xlink" width="200" height="200"><defs><style type="text/css"></style></defs><path d="M981.88570541 574.42428183c-24.37569992 0-44.90260354 20.52690505-44.90260498 44.90260353v297.64012029h-841.60309537V99.73960874h318.16702389c24.37569992 0 44.90260354-20.52690505 44.90260354-44.90260495s-20.52690505-44.90260354-44.90260354-44.90260353H63.30671539c-32.07328824 0-59.01485094 25.65863058-59.01485093 59.01485091v878.80811203c0 32.07328824 25.65863058 59.01485094 59.01485093 59.01485094H967.77345799c32.07328824 0 57.73192026-25.65863058 57.73192027-59.01485094v-328.43047784c1.28293209-24.37569992-19.24397294-44.90260354-43.61967285-44.90260353z" fill="#5da0e8" p-id="835"></path><path d="M529.01086804 538.50219871c11.54638463 0 23.09276781-3.84879487 30.79035756-12.82931529l368.20135443-356.65497122v275.83028313c0 24.37569992 20.52690505 44.90260354 44.90260494 44.90260355s44.90260354-20.52690505 44.90260354-44.90260355v-375.89894416c0-32.07328824-25.65863058-57.73192026-57.73192025-57.73192023h-382.31360181c-24.37569992 0-44.90260354 20.52690505-44.90260352 44.90260495s20.52690505 44.90260354 44.90260352 44.90260354h291.22546265l-372.05014931 360.50376608c-17.96104228 16.67811017-17.96104228 46.18553563-1.28293208 62.8636458 10.26345252 8.98052042 21.80983571 14.1122474 33.35622033 14.1122474z" fill="#5da0e8" p-id="836"></path></svg>