<svg viewBox="0 0 1024 1024" version="1.1" xmlns="http://www.w3.org/2000/svg" xmlns:xlink="http://www.w3.org/1999/xlink"><path d="M512.6815744 2.84644693c-281.14652729 0-509.15355307 228.00702578-509.15355307 509.15355307s228.00702578 509.15355307 509.15355307 509.15355307S1021.84095289 793.14652729 1021.84095289 512s-228.0128512-509.15355307-509.15937849-509.15355307z m92.71742009 256.86034205c12.40814933 0 22.41622471 8.30705209 22.41622471 18.32095289v33.4495744h51.65401885c39.03032889 0 70.8837376 27.53677085 71.00024604 61.44072818v304.35500942c0 33.90395733-31.74855111 61.5514112-70.8837376 61.5514112h-337.35020089c-39.14683733 0-70.88956302-27.64745387-70.88956302-61.5514112V373.03455289c0-33.90395733 31.74855111-61.55723662 70.8837376-61.55723662h49.95299555v-32.19710862c0-10.13040925 10.00807538-18.32095289 22.41039929-18.3209529 12.40814933 0 22.41622471 8.30705209 22.41622471 18.3209529v32.19710862h145.97925547v-33.4495744c0-10.12458382 10.00807538-18.32095289 22.41039929-18.32095289zM342.22972018 360.0613376c-12.39649849 0-21.84533333 6.93807787-21.84533333 12.85670685v304.35500942c0 5.91862898 9.55951787 12.85670685 21.84533333 12.85670684h337.12883484c12.28581547 0 21.84533333-6.93807787 21.84533333-12.85670684V372.91804445c0-5.91862898-9.55951787-12.85670685-21.84533333-12.85670685h-51.65984427v22.98129067c0 10.13040925-10.12458382 18.32095289-22.41039928 18.32095288-12.40814933 0-22.41622471-8.30705209-22.41622472-18.32095288v-22.98129067H437.00933973v24.23375645c0 10.12458382-10.0139008 18.32095289-22.41622471 18.32095288-12.40232391 0-22.41039929-8.30705209-22.41039929-18.32095288v-24.23375645h-49.95299555z m218.35430115 114.5044992h63.26408534c12.96738987 0 23.4356736 10.24109227 23.4356736 22.98711609 0 12.62951538-10.58479218 22.98129067-23.44149902 22.98129066h-63.26408534c-12.85088142 0-23.4356736-10.35760071-23.4356736-22.98129066 0-12.62951538 10.58479218-22.98711609 23.44149902-22.98711609zM401.52086755 565.59388445h222.89230507c12.85670685 0 23.32499058 10.35760071 23.55218205 22.98711608 0 12.62951538-10.58479218 22.98129067-23.44149902 22.98129067h-222.99716267c-12.97321529 0-23.44149902-10.24109227-23.44149903-22.98129067 0-12.62951538 10.57896675-22.98711609 23.4356736-22.98711608z" fill="#5da0e8"></path></svg>